/* XPM */
static char *_dbfc88084e14d23efb3500ef45df802mQlBPS3ahT0v0WpT[] = {
/* columns rows colors chars-per-pixel */
"64 64 256 2 ",
"   c #101400",
".  c #250F00",
"X  c #173C04",
"o  c #0D3005",
"O  c #2E300F",
"+  c #37322A",
"@  c #573B19",
"#  c #4C3208",
"$  c #613B0C",
"%  c #47392E",
"&  c #0B4500",
"*  c #184A00",
"=  c #1C5604",
"-  c #1C4C13",
";  c #274701",
":  c #255A06",
">  c #375607",
",  c #2A4A18",
"<  c #265917",
"1  c #325410",
"2  c #286608",
"3  c #3A6704",
"4  c #387907",
"5  c #2A641A",
"6  c #326A18",
"7  c #3B7A17",
"8  c #284823",
"9  c #2C5823",
"0  c #355827",
"q  c #35512A",
"w  c #2D6824",
"e  c #356928",
"r  c #2E7225",
"t  c #3A7629",
"y  c #3A6632",
"u  c #3C7634",
"i  c #1F6002",
"p  c #4A5510",
"a  c #68440A",
"s  c #714A15",
"d  c #476604",
"f  c #477806",
"g  c #47791B",
"h  c #557A14",
"j  c #51710D",
"k  c #504D32",
"l  c #674C33",
"z  c #685734",
"x  c #70542B",
"c  c #476A28",
"v  c #477929",
"b  c #597828",
"n  c #466C38",
"m  c #487636",
"M  c #577A37",
"N  c #576530",
"B  c #6A7039",
"V  c #637A10",
"C  c #655B4E",
"Z  c #4F6F46",
"A  c #627A45",
"S  c #766B52",
"D  c #504942",
"F  c #885917",
"G  c #91591C",
"H  c #94641D",
"J  c #835B25",
"K  c #985D21",
"L  c #976727",
"P  c #886734",
"I  c #956D37",
"U  c #997639",
"Y  c #8B692A",
"T  c #A3682A",
"R  c #A6762C",
"E  c #A87936",
"W  c #AC7637",
"Q  c #8F7648",
"!  c #A57C41",
"~  c #807561",
"^  c #3D8211",
"/  c #3D852D",
"(  c #478809",
")  c #558807",
"_  c #599308",
"`  c #4B831C",
"'  c #488716",
"]  c #578818",
"[  c #5B9C1B",
"{  c #579717",
"}  c #4E920F",
"|  c #679816",
" . c #6C9810",
".. c #5EA417",
"X. c #77A60C",
"o. c #63A41C",
"O. c #6AA41B",
"+. c #65AA1B",
"@. c #6BAC1C",
"#. c #65A516",
"$. c #74A41B",
"%. c #78A917",
"&. c #7CB219",
"*. c #68A20F",
"=. c #488525",
"-. c #578726",
";. c #5A9728",
":. c #5A8838",
">. c #5A9735",
",. c #4A8635",
"<. c #668C28",
"1. c #6B9E2C",
"2. c #659828",
"3. c #769B2B",
"4. c #689736",
"5. c #759938",
"6. c #638936",
"7. c #5CA225",
"8. c #5DA239",
"9. c #65A323",
"0. c #65A924",
"q. c #6CAC23",
"w. c #6BAC2B",
"e. c #68A529",
"r. c #76AA27",
"t. c #6BB228",
"y. c #72B324",
"u. c #74B42C",
"i. c #7CB52C",
"p. c #79B92A",
"a. c #6DAB33",
"s. c #68A535",
"d. c #78A937",
"f. c #74B533",
"g. c #7BBB34",
"h. c #7AB736",
"j. c #6DB432",
"k. c #7CC134",
"l. c #799947",
"z. c #71904E",
"x. c #78A745",
"c. c #70AD47",
"v. c #79A862",
"b. c #6A9058",
"n. c #82AD19",
"m. c #88B71C",
"M. c #93BB1D",
"N. c #85AD0F",
"B. c #84B422",
"V. c #83B42B",
"C. c #8DBD2B",
"Z. c #89B927",
"A. c #93BC24",
"S. c #93BC2B",
"D. c #98BA27",
"F. c #8AAD37",
"G. c #86B937",
"H. c #97BB35",
"J. c #83AA28",
"K. c #A4BC38",
"L. c #B3BF35",
"P. c #A68135",
"I. c #8FC127",
"U. c #94C224",
"Y. c #94C32C",
"T. c #9AC529",
"R. c #83C438",
"E. c #98C436",
"W. c #9AD03C",
"Q. c #A5C62D",
"!. c #A4C433",
"~. c #A5CC3B",
"^. c #ACCD3B",
"/. c #A8C637",
"(. c #B2CC3B",
"). c #B5C739",
"_. c #ACD23C",
"`. c #ACD237",
"'. c #B2D43C",
"]. c #89904C",
"[. c #AA8546",
"{. c #B28850",
"}. c #85BA44",
"|. c #99B847",
" X c #99B654",
".X c #8FAA50",
"XX c #A3BA48",
"oX c #A3B754",
"OX c #988569",
"+X c #AC936D",
"@X c #95B273",
"#X c #B3B16B",
"$X c #89C749",
"%X c #99C64C",
"&X c #9BCA54",
"*X c #A8C944",
"=X c #B3CD42",
"-X c #B7CC49",
";X c #AAD445",
":X c #B4D342",
">X c #B9D847",
",X c #AACB55",
"<X c #B8D755",
"1X c #AFD057",
"2X c #BDE354",
"3X c #B0C670",
"4X c #98C967",
"5X c #C4D54B",
"6X c #C7D84B",
"7X c #C9DA52",
"8X c #CBD84D",
"9X c #CCE356",
"0X c #CAE56E",
"qX c #B4AC94",
"wX c #A0958B",
"eX c #CBBCAA",
"rX c #D7B89B",
"tX c #B0CB8C",
"yX c #B5D1B0",
"uX c #ADD8A7",
"iX c #C5D995",
"pX c #CDF096",
"aX c #CCD1B0",
"sX c #F4DBB8",
"dX c #D1F3B3",
"fX c #EBF8B2",
"gX c #DCF7D5",
"hX c #DAF3CE",
"jX c #FCEBCC",
"kX c #E7FEC8",
"lX c #F7FFCA",
"zX c #EBFED3",
"xX c #E7FEDB",
"cX c #F3FEDD",
"vX c #FCFEDD",
"bX c #FAFBD5",
"nX c #F7E9D9",
"mX c #ECFDE4",
"MX c #EDFEEB",
"NX c #E6FCE1",
"BX c #F4FEE4",
"VX c #FBFDE4",
"CX c #FDF5EC",
"ZX c #F4FEEC",
"AX c #FDFDEC",
"SX c #FDF3E4",
"DX c #FCF6F4",
"FX c #F5FEF4",
"GX c #FDFDF5",
"HX c #F6FDFB",
"JX c #FFFFFF",
"KX c #FEFEFE",
"LX c #FEFEFD",
"PX c #F9F7FA",
"IX c #FFEAE4",
"UX c #E6DAC9",
/* pixels */
"LXLXLXLXLXLXLXLXLXLXLXLXLXKXLXLXLXLXLXLXLXKXLXKXKXHXHXHXLXKXLXGXGXVXlX5.5.s.dXkXdX@XxXGXKXLXLXGXHXHXLXLXLXLXLXKXLXLXLXLXLXLXLXGX",
"LXLXLXLXLXLXLXLXLXLXLXLXLXLXLXLXLXLXLXLXDXLXLXLXZXAXcXVXAXLXGXLXZXBX@Xx.}.s.c.pX4..Xz.cXFXZXBXAXHXKXLXLXLXLXLXLXLXLXLXLXLXLXLXGX",
"LXLXLXLXLXLXLXLXPXLXLXLXLXLXPXLXLXLXPXLXLXGXGXAXbX.X XlXvXAXLXGXZXcX.Xh.u.u.e.G.G.G.5.fXkXcXbXbXBXGXFXGXGXLXPXLXLXLXLXLXLXLXLXLX",
"LXLXLXLXLXLXLXLXLXLXKXKXLXLXLXLXZXVXVXcXVXVXvXlXpX|.XXoX.XdXVXVXcXz.x.h.u.R.y.i.V.R.$Xx.x.5.].z.VXFXLXLXGXDXLXLXLXLXLXLXLXLXLXLX",
"GXGXLXLXLXLXLXLXLXLXLXLXLXGXHXBXlX X XoX3XlXfX XXX*X*X*X1X|.fXlXdXx.$Xy.o.0.u.O.p.p.g.f.h.a.d.l.cXGXLXKXLXLXKXLXLXHXGXGXLXLXLXLX",
"LXLXLXLXLXLXLXLXLXLXLXLXLXGXVXlX XF.=X*X.XfXfXXX-X>X^.:XT.H.F.5.fXd.h.u.e.} 2.w.e.f.u.u.0.9.d.pXkXAXHXKXLXLXLXLXLXLXGXGXLXLXLXLX",
"LXLXLXLXLXLXLXLXLXLXLXLXGXvX3XoXH.2X^.^.K.K.K.XX^.^._.E.;XS.V.r.&Xa.e.w.] 3 2.] g ;.j.g.t.f.w.e. Xl.BXHXKXLXLXLXLXLXLXLXLXLXLXLX",
"LXLXLXLXLXLXLXLXLXLXLXLXGXbXoX/./.>X'.'.(.(./.K.^.~.T._.;Xr.%.i.g.f.9.1.-.g 3 g 2 ' w.{ ( w.w.h.1.l.@XFXHXKXLXLXLXLXLXLXLXLXLXLX",
"LXLXLXLXLXLXLXLXKXLXLXLXAXlXXX>X:X^.'.'.(.>X/./.'._.E.*X$.i.G.i.G.f.1.] -.h h ] : ' [ } w.w.0.[ s.3 gXFXFXHXLXLXGXLXLXLXLXLXKXLX",
"LXLXLXLXLXLXLXLXLXLXLXGXvXfXH.(.'.`.^.^.(.:XQ.'.T.T.C.$.| r.r.| r.| ] d h 3.0X1Xf 2 ( [ w.7.o.w.' c.dXhXaXmXAXGXKXLXKXKXLXLXLXLX",
"LXLXLXLXLXLXLXLXLXLXLXBXfXoXH.'.`.Q./.^.>X!.T.Q.T.U.Z.C.) _ ;X;X$.1XJ.j ,X*X-X-X,X1X' ^ ' ' [ | 9.' 4Xg M M BXFXLXKXLXLXLXLXLXDX",
"LXLXLXLXLXLXLXLXLXKXGXVXiX|.<X'.'.M.!.D.!.A._.'.U.U.Y.C._  .2X~.7X<X*X<X-X7X6X7X0X%X' ' 2 =.} o.7.4 a.` b c zXAXHXLXGXLXLXLXLXLX",
"LXLXLXLXLXGXGXGXHXHXFXzXpXF.>X^.^./.~.!.A.A.T.M.m.U.n.%.r.;X>X6X5X7X9X>X7X7X5X5X-X,X] ` ` 7 ' 2.' ' ' -.-.:.z.xXZXMXZXAXGXFXLXLX",
"LXLXLXLXLXGXFXAXFXmXzXkX X*X:X_.~.E.S.Z.S.S.Z.I.m.&.m.Y.*X=X:X6X5X6X6X9X6X8X8X7X-X .: ` ` ` ' ` ` ' ( ' ' ` :.b.n tXA hXZXHXLXPX",
"LXLXLXLXLXHXGXZXcXtX5.1XF.H._.A._.U.U.N.Y.C.Z.I.M.&.m.;X=X5X9X5X8X8X6X9X5X5X7X).(.*XF.: ' ' =.' ' ' e.f.' 7 c.6 :.c v.Z BXHXLXLX",
"LXLXLXLXKXHXFXBXiX.XF. . .S.E.S.U.M.T.N.n.I.C.Z.U.n.n.n.=X7X8X8X9X9X5X5X9X7X-X=X/.D.E.2.{ ' ' ' a.h.$X}.;.-.c.* v ,.:.c cXZXGXLX",
"KXLXLXFXGXFXBXaXl.d.i.y.y.r.r.| C.Z.&.%.B.m.E.B.&.%.B.m.~.:X6X5X7X6X5X).-X-XK.(.>X!.H.%X4 s.} 9.}.G.G.G.a.c.c.* t v :.c c BXMXHX",
"LXLXGXGXLXFXVXkX5.%Xp.#.o.} 2 f r.W.&.&.&.%.m.&.%.*.Z.;X^.6X5X).7X).).-X-X/./.:X/.K./.%X* c.h.h.$Xh.g.g.9.a.& 6 t v :.:.:.c ZXHX",
"LXLXLXLXLXGXzX@X1.u.p.R.y.o.' { ^ y.y.&.m.%.n.&.X.m.S.^.>X).5XL.).).).5X7X=X/.!.H.|.|.d.3 s.c.$Xe.0.w.f.f.e.8.: 7 v v M M Z NXFX",
"LXKXLXLXLXBXuX4Xw.u.u.o...o.9.[ [ p.$.V.J. .J.V.r.i.<X*XK.-X*XK.9XQ.).-X).:X/.J.V d 4Xf ;.c.s.s.7.7.a.j.a.7.;.>.>.v v m m 0 xXFX",
"KXLXLXGXBXzXl.d.u.u.w.[ +.....0.O.V.F.j 5.d 5.; : d.d.d.3 }.; ,X*X/.K./.>X^.>X .; ; c -.s.;.;.s.8.8.=.=.s.;.c.>.7 2 t v c 0 q mX",
"LXLXLXZXvX6.}.h.f.f.w.o.#.+.+.[ V.V.3.d 5.b M 1 -.g -.h ' 2.4.&XF./././.!.E.J.&Xp c c v >.4 7 ;.>.& o & >.>.>.>.2 v v = m m 9 gX",
"LXZXZXcXdX<.G.i.u.w.o.+.#.#.) ( ) ) f j > l.B b 5.-.-.;.s.>.-.` %XV.E.F.3.|. X3 M c g =.=.7 2 : = 5 < < & : * : : 5 < < < 9 , xX",
"FXmX@Xl.d.i.R.q.9.o.9.#.*.C.%XY.Y.H.H.3 <.> b h <.<.2.2.;.>.>.g f %X|.&Xh : : * X 4.5.s.' ' ' >.>.: e e u t = : : < < < < < 9 zX",
"MXgX4.a.u.p.@.@.9.{ ) 3 _ Y.;X~.~.*X .: 3 |..Xd d 4.4.4.4.>.,.g =.4.-.g g v m v <.1.d.f.0.{ e.a.s.7 5 e u e 5 = 5 < < < < - y 0 ",
"xXdX1.y.p...R.#.| G.f J.B.T.^.~.;XZ.Y.S.f |.|.; d <.h ;.4.>.=.=.v v =.=.g t ,.g 1.r.r.p.y.t.p.f.f.( 6 r u u ,.u u / r ,.u u 9 y ",
"v.:.w.#.p.+.g...R.W.;XS.>X=X^.>X:X~.^.~.!.*X*X .) 1.f 2.>.>.=./ ^ =.{ e.a.;.4 s.f.h.i.g.p.k.k.g.f.} 2 6 w u / r r t u u w w y 9 ",
"v.:.w.#...0.0.} _ Z._.(.=X=X:X:X;X>X'.^.^._.E. .$.| r.1.>.c./ / ' w.h.f.f.t.( w.u.V.i.p.y.p.u.q.t.0.^ i w r t t t r t w e w 9 dX",
"dX:.;.[ t...} } C.Y._.(.=X=X_.Q._.A.H.>X_.A.Z.%.*.*.$.e.` =.t / 7.t.$Xf.f.u.0.q.G.Z.i.i.y.p.u.y.{ 0.;.>.5 t r r / t u u e y 9 gX",
"kX:.] e.R...} _ Z.T.!.'.>X>XQ.A.~.S.S.~.M.U.Y.&.Y.&.| { s.>.=.=...y.g.f.R.k.t.k.p.p.i.y.+.@.q.q.o.0.8.>.2 r r u u w w 9 y 0 NXZX",
"BXdX-.a.;.;.[ _ n.!.'.^.^.Q.A.A.U.M.U.m.T.U.Y.C.n.$.| { a.4 ' ' o.p.u.u.y.k.g.y.&.y.G.u.+.+.@.q.O.| ;.` = t t t u u uXZ gXFXHXPX",
"FXzXb ` ;.;.] V.;X:X^./.`._.T.T.M.T.A.U.I.Y.m.E.%.| _ e.{ ;.] e.q.q.r.1.e.9.g.u.@.%.i.w.q.@.@.o.| 2.>.= 2 7 t t u n aXZXZXFXLXLX",
"LXAXcXM -.2.) G.;X~.!.D.D.A.U.M.A.A.C.E.&.Y.m.%.$.| | | 1.1.} 0.t.0.1.; 4.4.s.e.O.#.r.O._ @.o.9.=.=.* = t r 5 < 9 0 qXFXHXLXLXLX",
"LXLXmXaXtXpX) E.;X^.'.:XZ.E.A.T.M.A.&.r.V.C.A.%.| 3 > 5.5.3 4 t.t.$X4.  o X v ;.o.@.O.q.O.q.[ ;.:.& < w w w < 9 9 8 NXGXHXLXKXLX",
"KXLXKXFXcX:.] Z.T.:XM.D.H.Z.%.X.M.A.Z.&. .%.V.2.3 X X ; z.v ;.s.7.2.5.o o o o -.9.@.@.#.y.O.[ = * < w 5 e w - X q ZXGXGXLXLXLXLX",
"KXKXLXGXmXA <.*X_.`.T.A.S.Y.A.m.X.X. .$.%. .| x.* X X v.o * * 2.e.2.o A 0 X * 4.[ y.#.@.#.9.1.` = 5 5 w 9 < 8 MXFXmXGXLXDXLXPXLX",
"GXLXLXFXZXkX X*X:X`.M.A.A.Y.Z.Z.$.$.e.9.O.O.2.o < 8 b.n , > * 4.4.b ; A 0 , 5 =.} ..+.+...[ 4.6 : < w w 9 0 8 MXFXLXDXLXLXLXLXKX",
"LXLXGXAXGXvX].|.H.^.N.M.M.X.B.E.r.e.s.;.' a.>.t y y q 0 B N O p > X N c m v t >.e.[ ( [ } 4 : : < < e < y X gXHXLXLXLXGXLXPXLXKX",
"KXKXLXLXGXVXlX3X|.H.X.U.U.Y.C.V.O.e.= t t t t e u n M B p p k # N p N , m u 6 * = s.{ ;.s.2 : < 9 X 0 8 X MXHXKXKXKXLXLXLXLXLXKX",
"LXLXLXLXLXGXvXfXiXfX$.S.n.Y.C.V.O.| : m u t u e y n c N ].x # s qXz z N n n n e 1 g =.= : 6 < , 8 NXgXyXMXFXFXLXLXLXKXLXPXLXLXHX",
"LXLXLXLXLXGXGXAXcXtXd.H.C.X.X.$. .) : u m u tXNXNXZ yXcXz P P # a Q z vXS mXgXxXq 9 e < < , yXk mXZXFXHXHXHXHXLXLXLXLXLXLXLXLXLX",
"LXLXLXLXLXLXLXLXmXkX5.r.r.)  .$.$.r.v n y Z gXMXFXFXKXGXvXz I I a ! x vXCXKXHXHXZXaXZ 9 O mXHXDXGXHXLXKXKXKXLXLXLXLXLXLXLXLXLXLX",
"LXLXLXLXLXLXLXLXHXcXtX3.3.$.$.$.$.<.dXn MXMXHXHXLXLXKXFXAXjXP E $ [.x vXGXHXHXKXHXFXxXn gXFXKXLXLXLXLXLXKXLXLXLXLXLXLXLXLXLXLXLX",
"LXLXLXLXLXLXLXLXKXFXtXl..X.X3.3.] l.kXFXHXHXPXKXKXKXLXKXFXVXQ [.F T P sXGXKXKXHXLXLXFXFXHXHXPXLXLXLXLXLXLXLXLXLXLXLXLXLXLXLXLXLX",
"GXGXLXLXLXLXLXLXLXKXZXcXBXcXcX@Xz.kXAXFXKXLXLXKXKXLXKXKXLXVXx [.H H I OXAXHXFXHXDXLXFXFXKXHXKXKXLXLXLXLXLXLXLXLXLXLXLXLXLXLXLXLX",
"GXGXGXLXLXLXLXLXPXLXLXLXHXHXZXZXAXBXGXLXLXLXGXLXKXLXKXKXHXAX# [.R L P @ GXFXFXFXLXGXLXLXLXLXLXKXLXLXLXLXLXLXLXLXLXLXLXLXLXLXLXLX",
"LXLXLXLXLXLXLXLXLXLXLXLXLXHXLXLXLXGXLXPXLXLXLXLXLXLXHXKXLXSX@ ! E T s l GXLXFXLXGXLXLXPXLXLXLXLXLXKXHXLXLXLXLXLXLXLXLXLXLXLXLXLX",
"LXLXLXLXLXLXLXGXGXGXLXLXGXLXLXLXLXLXLXLXPXLXLXGXLXLXKXHXDXAXQ W R R s l GXLXLXLXLXKXLXLXLXLXGXLXHXHXLXLXLXLXLXLXLXLXLXLXLXLXLXLX",
"LXLXLXLXLXLXLXLXLXLXLXLXLXLXLXLXLXLXLXLXLXLXLXLXLXLXLXLXAXjX{.W R W x @ GXKXKXLXLXLXLXLXLXLXLXLXLXLXLXLXLXLXLXLXLXLXLXLXLXLXLXLX",
"LXLXLXLXLXLXLXLXLXLXLXLXLXLXLXLXLXLXLXLXLXLXLXLXLXKXLXPXAXaX[.W W I a +XGXKXHXLXLXLXLXLXKXLXLXLXLXLXLXLXLXLXLXLXLXLXLXLXLXLXLXLX",
"LXLXLXLXLXLXLXLXLXLXLXLXLXLXLXLXGXGXKXKXKXKXLXLXLXLXLXGXVXQ ! W W I # AXLXHXLXLXLXLXLXLXKXKXLXLXLXLXLXLXLXLXLXLXLXLXLXLXLXLXLXLX",
"LXLXLXLXLXLXLXLXLXLXLXLXLXLXLXLXLXLXKXKXKXLXLXLXGXLXGXSX~ {.E W L I . DXLXKXLXGXLXLXLXLXKXKXLXLXLXLXLXLXLXLXLXLXLXLXLXLXLXLXLXLX",
"LXLXLXLXLXLXLXLXLXLXLXLXLXLXLXLXLXLXLXLXLXLXLXLXLXLXAXaX#XE P.E {.J qXKXKXPXLXLXLXLXLXLXLXLXLXLXLXLXLXLXLXLXLXLXLXLXLXLXLXLXLXLX",
"LXLXLXLXLXLXLXLXLXLXLXLXLXLXLXLXLXLXLXLXLXLXLXLXLXDXAXB J [.R H L x nXLXLXLXGXGXLXLXLXLXLXLXLXLXLXLXLXLXLXLXLXLXLXLXLXLXLXLXLXLX",
"LXLXLXLXLXLXLXLXLXLXLXLXLXLXLXLXLXLXLXLXLXLXLXLXKXGXsXP P.P.R R L x SXGXKXLXLXLXLXLXLXLXLXLXLXLXLXLXLXLXLXLXLXLXLXLXLXLXLXLXLXLX",
"LXLXLXLXLXLXLXLXLXLXLXLXLXLXLXLXLXLXLXLXLXLXLXLXAXjX+Xa F R L [.I P sXGXGXKXLXLXLXLXLXLXLXLXLXLXLXLXLXLXLXLXLXLXLXLXLXLXLXLXLXLX",
"LXLXLXLXLXLXLXLXLXLXLXLXLXGXGXGXHXGXCXCXGXCXAXVXsXQ U a G W T {.L I # nXGXLXLXKXLXHXLXHXLXHXKXLXLXLXLXLXLXLXLXLXLXLXLXLXLXLXLXLX",
"LXLXLXLXLXLXLXLXLXDXGXLXGXGXGXGXAXAXvXl OX+XOXOXU U E F L T T W L J P s O CXLXKXPXLXHXKXKXKXLXKXLXLXLXLXLXLXLXLXLXLXLXLXLXLXLXLX",
"LXLXLXLXLXLXLXLXLXLXLXGXGXAXGXeXS OXI {.[.E I E H E L G T K L T L L L J @ . O + wXLXLXLXHXFXLXKXLXLXLXLXLXLXLXLXLXLXLXLXLXLXLXLX",
"LXLXLXLXLXLXLXLXLXGXLXGXGXAXC ~ z s J I I F J a J U F F L L L L H s G L x z SXGXLXDXLXLXHXHXLXLXLXLXLXLXLXLXLXLXLXLXLXLXLXLXLXLX",
"LXLXLXLXLXLXLXLXLXLXGXGXSXD + + SXnXk z x @ jXjXsX+Xa I Y I s s a a J s x @ l % CXGXGXLXLXLXLXLXLXLXLXLXLXLXLXLXLXLXLXLXLXLXLXLX",
"LXLXLXLXLXLXLXLXPXDX+ C wXUXCXGXLXGXGXSXSXSXqXl l z x x x x a O @ l l rX@ l l k % D KXLXLXLXDXLXLXLXLXLXLXLXLXLXLXLXLXLXLXLXLXLX",
"LXLXLXLXLXLXLXLXLXDXGXGXLXGXGXLXLXLXLXGXnXSXS C l IXIXqXOXUXSXAXAXUXLXCXSXS eXAXDXLXKXLXGXLXLXHXLXLXLXLXLXLXLXLXLXLXLXLXLXLXLXLX",
"LXLXLXLXLXLXLXLXLXLXGXLXLXDXLXLXLXLXDXk k l . eXGXDXKXKXDXLXLXHXHXKXHXLXGXAXAXAXLXKXLXLXLXPXKXHXLXLXLXLXLXLXLXLXLXLXLXLXLXLXLXLX"
};
