/* XPM */
static char *_914c2adb01b4d15cdd419dd11f571d6ZNmajOI27K6pKQsJ[] = {
/* columns rows colors chars-per-pixel */
"64 64 147 2 ",
"   c None",
".  c #1E4703",
"X  c #1E4905",
"o  c #1F4709",
"O  c #1E4808",
"+  c #224704",
"@  c #214A06",
"#  c #22460C",
"$  c #204809",
"%  c #285602",
"&  c #265C05",
"*  c #295A06",
"=  c #26540A",
"-  c #2B570C",
";  c #275B0A",
":  c #2A590B",
">  c #254313",
",  c #294B12",
"<  c #2C5711",
"1  c #2C5911",
"2  c #305512",
"3  c #325C17",
"4  c #305418",
"5  c #256102",
"6  c #286303",
"7  c #296908",
"8  c #326F07",
"9  c #336E09",
"0  c #2F7D01",
"q  c #327C02",
"w  c #34750B",
"e  c #36790A",
"r  c #387808",
"t  c #377510",
"y  c #397611",
"u  c #358102",
"i  c #3C8317",
"p  c #44821A",
"a  c #449211",
"s  c #499714",
"d  c #479B15",
"f  c #4A9A16",
"g  c #4D961C",
"h  c #4A9919",
"j  c #509817",
"k  c #519619",
"l  c #4E9621",
"z  c #529423",
"x  c #55942B",
"c  c #588D33",
"v  c #5D9739",
"b  c #5E983A",
"n  c #5AAB27",
"m  c #63B430",
"M  c #69BA35",
"N  c #6FBD3C",
"B  c #6EC53D",
"V  c #72C43C",
"C  c #72C83A",
"Z  c #75BD43",
"A  c #77BD4C",
"S  c #74C242",
"D  c #7ACC42",
"F  c #76C049",
"G  c #78C248",
"H  c #7BC84A",
"J  c #79D042",
"K  c #7CD348",
"L  c #87DD4D",
"P  c #89DE4F",
"I  c #8EDE59",
"U  c #92DE5C",
"Y  c #87E747",
"T  c #89E645",
"R  c #87EB47",
"E  c #87E54C",
"W  c #88E649",
"Q  c #88E54B",
"!  c #89E54B",
"~  c #8AE54B",
"^  c #88E64A",
"/  c #88E64B",
"(  c #89E64B",
")  c #8AE548",
"_  c #8AE34D",
"`  c #88E14F",
"'  c #89E34F",
"]  c #88E34E",
"[  c #8BE34F",
"{  c #88E54C",
"}  c #89E54C",
"|  c #88E44D",
" . c #88E54D",
".. c #89E54D",
"X. c #8BE44C",
"o. c #8AE54C",
"O. c #8BE44D",
"+. c #88E64C",
"@. c #89E64C",
"#. c #88E74C",
"$. c #89E64D",
"%. c #88E74D",
"&. c #89E44E",
"*. c #88E54E",
"=. c #89E54E",
"-. c #89E44F",
";. c #8AE44E",
":. c #8BE44E",
">. c #8AE54E",
",. c #89E64E",
"<. c #89E64F",
"1. c #89E44D",
"2. c #83E84A",
"3. c #85E848",
"4. c #86E848",
"5. c #84E84A",
"6. c #86E650",
"7. c #84E652",
"8. c #87E552",
"9. c #8BE350",
"0. c #8BE352",
"q. c #89E450",
"w. c #88E651",
"e. c #89E552",
"r. c #8DE055",
"t. c #8CE252",
"y. c #8CE058",
"u. c #8FE35B",
"i. c #96E25A",
"p. c #91E05C",
"a. c #97CD68",
"s. c #90DF60",
"d. c #92DE60",
"f. c #97DF60",
"g. c #92DB60",
"h. c #9CDB6D",
"j. c #99DE6E",
"k. c #9ECB77",
"l. c #9DD878",
"z. c #A0CA7B",
"x. c #A4D97D",
"c. c #9BCB81",
"v. c #9ACB83",
"b. c #99CA85",
"n. c #A4CA85",
"m. c #ABE28E",
"M. c #ACE38E",
/* pixels */
"                                                                                                                                ",
"                                                                                                                                ",
"                                                                                                                                ",
"                                                                                                                                ",
"                                                                                                                                ",
"                                                                                                                                ",
"                                                                                                                                ",
"                                                                                                                                ",
"                                                                                                                                ",
"                                                                                                                                ",
"                                                                                                                                ",
"                                                                                                                                ",
"                                                                                                                                ",
"                                                                                                                                ",
"                                                                                                                                ",
"                                                                                                                                ",
"                                                                                                                                ",
"                                                                                                                                ",
"                                                                                                                                ",
"                                                                          G V D o.o.X.4.                                        ",
"                                                                          G V D / o.T o.                                        ",
"                                        3.o.o.Y                   B V o.3.B V M f f d f h f                                     ",
"                                        *./ / o.                  V V o.*.B V M f f f f f f                                     ",
"                                    k.z.D J J J a.v.n.        b.v.P P o.o.L P Z 8 8 8 9 K K m.M.                                ",
"                                    V V V V V V V V Z         V V *.o.o.o.o.*.G : : : - o.o.*.o.                                ",
"                                    S V V V V V V V A         V V o.*.o.o.o.3.Z : : : * / / / /                                 ",
"                            6.o.o./ V V f f h f f f f f f     V B q q q q q q a V V V V V V V V ' *.o.*.                        ",
"                            3.o.o.3.V V f f f f f f f f f     V V q q q q q q a V V V V V V V V *.*.3.o.                        ",
"                        j.l.C C C C V V P P 6 6 6 6 6 6 6 b v | | P P P P P P S u u h h | | ' ' 6 6 ' o.f.h.x.                  ",
"                        3.' V V V V V V *.o.: : : : : : : f f 3.*.*.o.o.o.o.o.D q q f f o.o.o.o.- : o./ o.o.y.                  ",
"                        3.' V V V V V V *.o.: : : : : : : f f 3.*.o.o.o.o.o.o.D q q f f o.o.o.o.- : ' / o.o.y.                  ",
"              R / / / C f f f h : : : : f f V V V V V V V o.o.| o.V V V V V V M f f f f - - - - s h f h C o./ 4.q.              ",
"              / 3.3.3.C f f f f < : : : f f V S S S S V V *.*.o.3.V V V V V V M f f h f : : : : h h h f V / 3.o.o.              ",
"      U p.U s.2.o.d f f f s 0.q.I r.r.y.f f f f f f f f f o.o.u q q q f f f f h h f 0.| r.r.r.r.f f f f h f f f f U U s.i.      ",
"      / o.o.6.T 3.f f f f f o.o.o./ / ' h f f f f f f f f o.o.q q q q h f f f f h f o./ / / / / h h f f f h f f f q.o.4.6.      ",
"      r.X.T q.q.o.f f f f f o.o.o.o.o.o.l g h g g k l f f o.o.q q q q h f f f f f f q.q.o.o.o.o.f h f f f g l h f o.q.t.9.      ",
"      < : f h h f f f n V V V V V V V V : : : : : - & / / o.o./ 3.q q q q q q q q q h h h h h h f f :.o.z - ; f f h f - -       ",
"      : - f f f f f f n V V V V V V V V : : : : : - & o.o.o.o.o.o.0 q e q q q q q q f g f f f f f f T *.z : * f d f f 1 -       ",
"      : - f f & : : * * : ; ; ; & ; q q S S q e H 0.U & & q q q q q q & : e q w & & ; & f f o.o.o.o.5 & p h g f h * * g l       ",
"      : : f f - : : : : : : : : : : q q V V q q D 6.' : : q q q q q 0 ; * e q w : : : 1 f h o.o.o.o.: : i l s s s : * h g       ",
"      4 2 g g * : & ; * ; & : : & * q q S V q q H r.g.; ; q q e r 0 q & & e q w : : : : g g r.r.r.r.5 & p l l f h & & l z       ",
"          . + : : Z V m h g : 1 q q q q q q q q & + X h h f f 1 < f h h f f f p + X : : : : : : * : s f y : 6 f s f f           ",
"          X X : ; N V m f k : < 0 q q q q q q q & o X f f f f : : f f f f f s p X X : : : : : : : : h f t - * f h f s           ",
"              . X g f f f s e e : & * : X X - * : : - X X : : % : : * : : : * : . X : : : : . . - : h f h h l s f               ",
"              O O h h h f h q q : : : : O X - : : : : X X : : : : : : : : : : : X X : : : : X X : : j h f f f f f               ",
"              > > x z g h g y y : : : 1 $ @ : : : : : @ @ : : : : : : : : : : : X X : 1 & & X X 1 : x z z z l x c               ",
"                  , X 6 q q o X X X o o X o - : : : < X X : : : : - : : : : ; 7 0 q $ + q q : : $ X X X = : 3                   ",
"                  # @ 6 q q X @ @ @ @ @ @ @ : : : : : @ @ : : : : : : : : : ; 6 0 q @ . q q : : @ @ @ @ = : 3                   ",
"                                                                                                                                ",
"                                                                                                                                ",
"                                                                                                                                ",
"                                                                                                                                ",
"                                                                                                                                ",
"                                                                                                                                ",
"                                                                                                                                ",
"                                                                                                                                ",
"                                                                                                                                ",
"                                                                                                                                ",
"                                                                                                                                ",
"                                                                                                                                ",
"                                                                                                                                ",
"                                                                                                                                ",
"                                                                                                                                ",
"                                                                                                                                "
};
