/* XPM */
static char *_4bfda220a3a437481574eddbfe02878uT2w4rRQP8UQc3fh[] = {
/* columns rows colors chars-per-pixel */
"64 64 256 2 ",
"   c #152B00",
".  c #0D3803",
"X  c #1B3402",
"o  c #1C3B02",
"O  c #1D3B0B",
"+  c #153704",
"@  c #1B3C17",
"#  c #002B00",
"$  c #233B02",
"%  c #233C0B",
"&  c #283B04",
"*  c #233C12",
"=  c #233D1B",
"-  c #1D3E23",
";  c #1B4302",
":  c #194906",
">  c #1C5302",
",  c #1B5505",
"<  c #164B0E",
"1  c #274608",
"2  c #334805",
"3  c #235402",
"4  c #235C02",
"5  c #295808",
"6  c #385708",
"7  c #284716",
"8  c #334D1B",
"9  c #295916",
"0  c #375916",
"q  c #2B6302",
"w  c #2D630B",
"e  c #2B6706",
"r  c #366908",
"t  c #3A740A",
"y  c #2C6317",
"u  c #346A1B",
"i  c #386916",
"p  c #3C7213",
"a  c #3A7714",
"s  c #2A4924",
"d  c #2A5423",
"f  c #375924",
"g  c #3C5A32",
"h  c #3B6826",
"j  c #3D7525",
"k  c #306526",
"l  c #1C4120",
"z  c #445B07",
"x  c #445B18",
"c  c #486709",
"v  c #45780A",
"b  c #59750B",
"n  c #466819",
"m  c #437B14",
"M  c #467A19",
"N  c #557916",
"B  c #556C16",
"V  c #657D13",
"C  c #485D25",
"Z  c #476725",
"A  c #556D28",
"S  c #467926",
"D  c #577827",
"F  c #466636",
"G  c #477A35",
"H  c #567836",
"J  c #536A37",
"K  c #657D30",
"L  c #547946",
"P  c #497046",
"I  c #657C44",
"U  c #3A840E",
"Y  c #468309",
"T  c #4A831C",
"R  c #498716",
"E  c #548919",
"W  c #58941C",
"Q  c #509214",
"!  c #688819",
"~  c #768B1A",
"^  c #79941C",
"/  c #688F17",
"(  c #64A51D",
")  c #4C8322",
"_  c #4A8626",
"`  c #528B23",
"'  c #548B2C",
"]  c #578728",
"[  c #5B9324",
"{  c #5B932C",
"}  c #599626",
"|  c #588936",
" . c #5C9535",
".. c #4C8532",
"X. c #698927",
"o. c #778C27",
"O. c #669828",
"+. c #7B9323",
"@. c #7C932C",
"#. c #779629",
"$. c #668836",
"%. c #788C37",
"&. c #669837",
"*. c #7B9533",
"=. c #789738",
"-. c #67A528",
";. c #77B82A",
":. c #69A535",
">. c #74A839",
",. c #78B538",
"<. c #73AB2C",
"1. c #5AA32C",
"2. c #7AC03C",
"3. c #5B8746",
"4. c #5D9643",
"5. c #5E9254",
"6. c #688948",
"7. c #689746",
"8. c #769848",
"9. c #699456",
"0. c #759A58",
"q. c #708B51",
"w. c #6DA745",
"e. c #76AA45",
"r. c #7AB548",
"t. c #77A757",
"y. c #7CB657",
"u. c #6EA656",
"i. c #769769",
"p. c #79A769",
"a. c #5D8663",
"s. c #7AC34B",
"d. c #809D1F",
"f. c #839829",
"g. c #849A37",
"h. c #868F34",
"j. c #89A527",
"k. c #87A536",
"l. c #95AB38",
"z. c #82BA3A",
"x. c #9BB236",
"c. c #96AE2B",
"v. c #A1B63D",
"b. c #83C138",
"n. c #849B45",
"m. c #859C5A",
"M. c #89A747",
"N. c #96AC47",
"B. c #84B948",
"V. c #99B448",
"C. c #8AA757",
"Z. c #97AD59",
"A. c #87BA57",
"S. c #98B558",
"D. c #A3B849",
"F. c #A5BA59",
"G. c #86A968",
"H. c #87B766",
"J. c #98B768",
"K. c #8CB574",
"L. c #99B878",
"P. c #92AC74",
"I. c #A6BD68",
"U. c #A5BC74",
"Y. c #B0BF7A",
"T. c #87C447",
"R. c #8AC556",
"E. c #94CA58",
"W. c #97D358",
"Q. c #91CE4D",
"!. c #ABC359",
"~. c #B0CC54",
"^. c #97C765",
"/. c #99D565",
"(. c #93C672",
"). c #AAC569",
"_. c #B2CA6C",
"`. c #B3C865",
"'. c #A3D869",
"]. c #B9D26D",
"[. c #ACC473",
"{. c #A4C57B",
"}. c #A9C777",
"|. c #B3CB73",
" X c #B4CA7B",
".X c #B5C979",
"XX c #A8D874",
"oX c #BBD37D",
"OX c #B9D676",
"+X c #ACE474",
"@X c #9EE064",
"#X c #C4D87A",
"$X c #C2D577",
"%X c #CAE37D",
"&X c #C8E478",
"*X c #D5EC75",
"=X c #93B584",
"-X c #A9BE82",
";X c #99C28A",
":X c #A9C887",
">X c #B5CB82",
",X c #B7CC87",
"<X c #ABD28A",
"1X c #BDD483",
"2X c #BED48C",
"3X c #B8D989",
"4X c #B9D697",
"5X c #B1D296",
"6X c #BDE28A",
"7X c #B8E596",
"8X c #BCDAA2",
"9X c #C1D684",
"0X c #C3DB84",
"qX c #C5DC8B",
"wX c #C7DA8A",
"eX c #C5DB93",
"rX c #CADD93",
"tX c #C4DC9C",
"yX c #C5D998",
"uX c #D1DA81",
"iX c #C4E484",
"pX c #CAE384",
"aX c #CCE48C",
"sX c #CCE98A",
"dX c #C8E788",
"fX c #D2EB8D",
"gX c #D5EA87",
"hX c #D7F28C",
"jX c #CCE493",
"kX c #CDEA93",
"lX c #CDE49C",
"zX c #C6E799",
"xX c #D1E594",
"cX c #D3EA94",
"vX c #D2E69C",
"bX c #D4EC9B",
"nX c #DAED9A",
"mX c #D8F299",
"MX c #C8F294",
"NX c #E1F495",
"BX c #C7DDA4",
"VX c #CAE6A5",
"CX c #D3E5A3",
"ZX c #D4EAA4",
"AX c #D9EDA3",
"SX c #D6ECAB",
"DX c #D9EDAC",
"FX c #D4E6AC",
"GX c #DCF1AB",
"HX c #D9F4A4",
"JX c #D9ECB3",
"KX c #DCF4B3",
"LX c #C9EEB1",
"PX c #E3F6A9",
"IX c #E4F6B5",
"UX c #E3EDAC",
/* pixels */
"x 2 C.U.6 Z 0 {.8.t.o % & 2 C A o.@.%.x %.n.@.@.g.S.Z.J.H H 7.t.Z 0 L < < 9 :X{.K.o 1 n.|.).J.5 Z Z 0 i n 0 f d L.<XG.Z Z {.Z $.",
"6.Z 8.J.D x H {.C.{.L.L A x U.C.b ! Z.$ n.`.`.V.g.c %.}.L.K.1 (.S H 7 f G L i.3.L.Z.D =.S.S.D 0 6.0.6 C.H.h d P f 5X:X5X{.L.J.Z ",
"J 0 $.[.[.jX2 o }.G.H 1 n K .X|.F.g.A 2 I.$X#X@.!.N.M.).q.1 i <XK.1 K.9 d s @ 7 {.8.g.g.M.J.C.J.0 H D 0 7.5XF g F L J Z {.J.H Z ",
"8 & 6.I.D c N 8.3X0.O 1 Z K Z._.g.g.z B I.F.N.g.g.k.OX).3XL.5 Z <X<X+ p.L d s 8 n Z.@.g._.I.C.D Z L.i S K.=X< 7 F 7 8 + J.{.o 8 ",
"* % 2 U.A x kX|.{.L.7 @ 1 aXX.z #X%.=.%.F.].%XV c c ].|.A 0 1 :XzXzX6.7 d l i.P.6 =.*.g._.).N.8.q.f 0 5 ;X5X5X:X4XG.1 P.:X{.7 O ",
"* 7 2  X XD z $.3X7 7 =XJ.iXz c n.B =.g.`.F.#Xk.N.&X&XiXD 6.{.VX}.J.<Xh 8 f f 1 J.I.X.c g.o.k.OX0.f 3.; ;X9.Z Z 3X<X<X1 0.:XG.f ",
"C Z $ qXD B n VXX 1 f 4XdXsXS.D A %.].!.F.`.`.~ +.!.].oX3X8.7.0 3X6.1 5X4XH zXZ.o C.pXM.@.b 6 c n K.K.5 9.<XVX(.$.XXzXzX1 8.:XZ ",
"J 2 1 1XbX XlX1 0 0.  zXdX&XqXn.$ B @.f.!.V.].$Xl.~.%XdX).}.i 0 7X{.| i 6XMXOXoXC.$ |.=.S.].oXS.D 5 u 5 h <X5X7X7X3XzX3XaX1 0 x ",
"8 $ 2 jXqXn.2 0 5XH X zXiXdXeX  $ X.V.f.l.].l.^ ~.*X%XdXOXS.6 G.7X{.zXe.XXsX3XiX}.C.2 J.).S.).aXiX}.8X: f 7 h f 1 o 5X3X$.M.A 1 ",
"O F C 2X[.A n n SXA o zXbXjXx $ K ].^ ~ k.+.D.V.k.&XsXfX].C.zXVX6.{.}.).6XdXdXOX XU.8.2 }..XdXdX). XK.F 7 f 1 G.6.0 6 2 6 6 Z f ",
"= F 8 q.$ 8.B c I.J.7 5XVXq.7   jXg.f.`.l.k.o.! gXhX%XOX).).zXJ.0 4XH.6 3XkXdX%X).).1Xx & L.>XjX[.3XzX4Xo 5 1 ).#.=.aXkXiX}.6.f ",
"s g 7 1 >XaXsXpXiXkX8 1 i.$ $ ,XaX#X&X&X+.+.`.].o.V.`.`.).dXdXC.6 zX6XZ.6 sXsXOXOX).bXjXo x C.>X[.kXaX{.0 $.6 Z.OX&XdXdXiXkXG.% ",
"@ @ * L.aXhXpXsXsX1XzX0 $ 1 H qXaXgXpXgX@.D.`.`._.S.g.@.`.hX0XOX^.aX0XsX).fXsX0X[.OXaX1XcXz $ & & 6 X.=.6.1 Z lXaXhX&XdXsXkXq.X ",
"l s * L.mX%XfXsXsXkXHXq.X o lXbXpXsXfX#XF._._._.OX_._.].N.X.M.S.sXhXsXfXOX_.pX0X_.|.aXgX|.S.n.$.n.S.].0X{.o $ BXkX%XsXsXpXkXq.7 ",
"@ 7 O L.cXaXjXkXkXkXlX1 1 m.jXaXsXfXpXcX0X|._.).oXqXaXfXgX*X!.S.@.X.o.o.*.@.@.X.@.o.@.*.M.).#X|.#XNXsXmXlX$ % J lXaXhXpXsXbXH % ",
"@ @ O U.jXcXjXcXaXcXVX$ $ 4XbXkXcXaXnXaXcX|.|.).Z.xXbXaX%XgXOX%XsXhXsX%XpX%X`.].!._.gXpXpXpXOXOXgX%XcXjXvXq.* & eX1XpXgXfXjXH % ",
"- @ 7 :XjXgXcXcXsXkX,Xo $ VXaXcXcXxXaXfXfX[. XoXC.xXjXaXfXpXoX0XfXfXcXaXfXfXcXOXI._.fXsXpX0X_.oXaXfXaXnXcXAX& & x qXnXfXcXjXI O ",
"- @ * ,XcXgXmXaXfXkXq.% $ VXjXkXcXcXcXpXaXOX[.Z.>XcXcXnXaXaXqXqXjXcXaXmXaXcX0XoX[.[.aXcXoXqX[.oXjXcXfXpXfXqXm.$ 6 K 9XcXjXZXJ O ",
"@ = % tXcXfXcXjXkXkXC 7 & VXcXcXcXxXfXcXaXI. Xo 1XjXcXnXaXaX9X9XbXaXcXcXaXoXoX|.[.[.aX0X0X0XI.1XvXqXnXhXgXF.bX2 z 2 %.jXvXCX6.% ",
"@ @ % VXcXcXqXbXjXzX8 * 1 VXcXcXaXmXfXaX0X9X}.D [.jXcXmXfXcXoX9XbXjXcXbX1X9XqXoX|.I.aXaX1XaX[.1XvXAXcXaXhX].I.aXz X.n.$ [.lXq.7 ",
"= @ $ DXbXxXrXZXlXtX% O 1 ZXcXfXmXcXaXoX9XrXK U.[.9XcXnXfXnX9X9XnXxXxXqXwXrXxXoX X[.cX1XjX9XI.qXjXcXcXfX$X`.).N.#Xg.n.2 n.m.G.* ",
"= *   DXAXrXvXZXCXtX  * & ZXmXnXaXqX1XqXlXGX& 2X X.X0XcXcXnXqX1XnXbXqX0XaXbXxXoXoX[.jXxX9XqX[.aXxXmXbXbX#XsXmXgXl.l.N.z n.2 I % ",
"* *   ZXbX9XvXCXZXtX  7 % VXHXbXqXqX2XvXvXq.q.>X X|.9XaXcXnXvXqXvXjXaXqXrXnXnXoX|..XvXjXxX9X[.aX0XpXmXjX0XcX0XF.l.v.D.g.V.& x 2 ",
"* * $ CXjX9XvXDXSX4XX O % SXAXjX1XqXeXCXDX  >X>X.X1XoXoXxXbXvXlXvXxX9XPXF.nXaXI. X XbXbXbX1X[.wXwXmX0XHX1XqXI.N.D.*Xx.x.D.o.2 m.",
"= O 6.DXvXwXvXDXSX4XX O 7 FXlX2X2XyXDXDX2 J.>X}.oXoXqXrXjXZXCXrXxXxXnXn.o.).#XoX X XAXAXqXjX[.1XoXnXjX1XcXcXnXmXhX*XD.x.x.!.hXM.",
"= 7 L.GXjX9XPXlXSX4X1 7 8 FX2XyX2XJXVXx x DX,X[.[..XbXeXeXIXDXCXnXcXfX*.o.g.NX|.I.1XeXrXrXqX.X9XjXeXrX1XcXbXbXwX`.l.x.~.x.x.D.l.",
"= s 4XlXrX1XvXtXtXG.$ o q.BXyXtXFXFXZ   CXSXU.1X.X1XAXvXyXCXCXyXxXNXg.@.@.o._.oX.XwXZXZXvX2XU.9XlX2X>X9XjXmXGXAX0X].D.l.c.c.c.j.",
"= * tX2X1X XeXSXVXZ % % =X4XtX:XC 2 2 FXVXeX X.X[..XGXCXDXCXDX9XNXgXN.h.o.g.!.].1XwXvXAXAXrX X1X2X X>XjXHXHXCXZXnXfX#X&X*X~.c.j.",
"7   4XjX X>XGXSX4X% % % X $ & $ & P.IXyXyXeX1XU. X XDXKXCXZXvXxXF.g.l.f.f.+.D.F.|.xXrXrX9XY.1X X XU.vXrXGXvXCXZXxXnXfX`.l.c.x.j.",
"O 8 ,XjXAX9XKXJXJ % O f q.q.:XIXIXDXyXyXCX9X1X X>X,XBXJXFXDXnXuXh.f.f.~ ~ f.f.h.oXnXCXUXDX,X[. X9X9XCXCXvXlXIXCXbX9XxXfX#X!.l.c.",
"+ H 4XqXqX2XtXP.% * X =X8XFXJXDXyXtXtXKXAX X X1X2XCXFXtXIXPXcX@.g.~ ~ f.f.f.o.@.oXxXCXZXeX>X>XbXjXjXeXKXrXZXZXeXnXAXrX XF.!.!.~.",
"7 L.3X8.J.tXI % 7 * f BXVXIXtXyXyXCXZXDXGX>X,X9XeXDXFXJXCXnX_.f.f.f.f.~ ^ f.D.F.oXAXZXZX X XrXjXrXwXlXDX4XSX2XIXlXeXJ.GXjXPX&XF.",
"$ KX&.R.] 1 X * * X 4XFXGXeXBXyXSXSXDXGXAX>XwX,X>XDXJXJXIXUXuXF.~ f.f.! +.f.~ g.|.qX1X[.).I.aXwXwXrXlX4XBXVXAXKXtXKX  KXL.I.I.|.",
"1 n XXB.) ; % O 7 4XBXlXrXeXtXJXSXIXAXvXjX X[.[. XIXJXIXUXUXh.D.].^ +.b +.+.^ f.).[.[.).=.=.mXPXPXIXVX4X-X4Xx tXKXLXo : 0.HXx 2X",
"; 7.R.R.&.; 7 F BXVXtXrXm.ZXUXIXrXwXZ.n.9X.X,X2X,XIXJXIXPXn.h.f.^ k.f.b f.+.^ f.M.oXOX!.S.=.%.$XwXrX>X4XL.  1 5XLXLX7 . Z 0.$ L.",
"3 XXR./.] 6 :XVXVX3X8.A :XlXrX9X9XZ.%.%.#X.X.X>XyXKXIXPXnXZ.o.+.^ k.#.b ~ ^ c.V._.).].M.M.k.@.`.wX9XzXzX0 9.+ O g LXF 7 9 Z $ 6.",
"t +X,./.] zX5XVXzX$.n J.VXeX9XpX#Xg.o.o.F..XY.:X,XDXGXPXn.@.&Xj.#.#.#.V +.^ f.@.%.1XMXE.B./ ! f.*.mXVXZ h 5.p.@ + f 9.+ ; 3.7 J ",
"e./.Q '.] MX3XzX&.] C.lXGXPXHXg.o.g.~ !.`.9X2X,XFXKXbXmXM.#.^ ^ O.>.X.! f.d.+.@.U.C.8.^.E.#.! o.*.=.J.K.h d P L d + 9.h 9 h o L ",
"E.E.Q W.=.6XzX8.e.e.H.VXlX[.=.n.@.V f.~ F. X>X4XFXCXPXmXX.! l.^ <.<.b #.+.^ j.f.n.m.0.&.E.W.@.+.*.=.D > ; 9 d # =Xg ; | 6.9.; 0.",
"+XT.-.E.] kX}.^.v M.zXCXbXI.6 =.g.V g.+.n.[.>X,XJXKXZ.X.*.*.#.<.:.[ ! +.f.+.k.*.IXP.0.; R.O.b b #.&.S 9 < < p.=XF O 0 p.H 9 5 {.",
"+XR.Y v &.HXJ.$.^.S.IXjXn.$.i S %.X.k.!.|.[. X{.GXHXoXM.PXOXo.#.r.E / #.*.X.*.%.P.0.; ; R.O.X.c c 5 (.9 y.u ;Xd 7 . K.7 : p.G.0.",
":.W } W A.A.XX] ^.MXHXn.%.6 D 6 M =.#.*.C.C.J.:XzXlX$.M.8.n.N.V.[ W / #.N c $.8.J 1 . 7.y.` X.@.c i S y  .u p.. ; 0.i.. s ;Xu ; ",
"O.:.R } XXM.O.^.S dX=.].6 n S 5 M E O.=.$.$.6.4X:X6.D e.M.X.=.X.O.[ O.O.&.5 + 1 8 1 C.r.(.M O.X.c i i u...u.9 . 0.3.+ @ a.@ O 0 ",
"O.R 1. .` XXE XX6XMX#.#.r M D w t E r.8.H K.4X:Xf f i 7.8.i c X.O.W O.O.$.9 : 7 + | &.^.y.3 N =.] &.i u S LX| VX0.h . g a.l 7 i.",
"W >.R s.:.A.>.>.MXN E v 5 M ' 3 m ) e.7.9.9.5X;Xf 9 9 <X0.6 n =.] t O.` e.7.6.: u C.r.M y.; 7.i 7.' 4 M i 7.t.7X7.7X9 9.. @ s i.",
":.r.U ,.'.` '.>.v E W r.E T ' 3 a _ T w.p.3.K.3 h h 3 S u 9 n 8.5 M { A.m w 7.p.3.Z A.^.5 9 LX5 S w p  .5 7.] { 7.7Xu k < P P = ",
"R U s.1.+XO.iXO.-.T.v { ,.R ) 4 ' &.t S H...p q e.e.e y.5 u 7.i 5 ' ` { {  .> | 9.. t.H...H LX9 9 S w.{ v n M v [ { a > 3.3.7 s ",
":.U s.:.E.>.^.O.z.z.>.t W W t M r.q B.:.{ ` E.Q.O.<.,.>.S S 5 5 D &.q w.T  .r y 7X9 G : ; ..K.9 9 S M O.e.3 &.r :.&.p u.(.u 7 a.",
"` ` W.,.:.R.>.B.( z.,.v M p r.r.Y Q ;.;.Y [ ,.z.b.,.Q :.| > p w S 5 S ) ' 4.h 9 u H.+ : 5 D 7X| > H.4 m &.r.>.M ] S 7.7XK.3 p.3.",
"' &.[ R.R @XY W ( -./ v r ^.{ :.t -.b.;.W E -.-.-.-.>.R S  .a p 3 5 S i > k 9.9 j (.< f u.| | M  .(.q &.> T B.c =.i 6.{.{.7.| y ",
"&.&.E T.Y Q.Q -.v v R v +XE O.m q [ ,.,.W m O.t { ' { { '  .' p w ..5 k 9 y S u u | 4.5 7.7.7.r i &.>.>.N O.5 ] X.J.A zX}.8.] D ",
"] :.O.,.Y T.Y b.,.O.R R.[ >.r M w ` Q -.R q ` p i S 4 { t &./.) ' u y h < y y.' , y...u S 4. .4 i a >.,.B.M.M.M.=.X.=.=.N.M.N N ",
"p T <.,.-.;.;.( Q b.T.,.O.O.m p r m O.W Y >.&.M 5 5 5 &.m w.R.m i y u G u (.' a ' : _ 4., j S , ' A.r E X.#.#.^ f.@.N.o.^ f.^ ^ ",
") T A.} Q.-.Y ( <.;.<.-.E T T r ' T <.-.-.E A.{ w i i 7.T +XR.` > S i _ /.U } t  .w., y.u.y , , y.m q >.X.N ^ #.+.f.b o.~ x.d.d.",
"S 4 4.' r.Q -.-.-.-.-.} ` ' q ) p { T.Q.z.<.B.E.M p p t r.B./.R e ' 4 /.R :.a w.w.^._ u u.k y j S p ^.r ` X.>.#.k.o.o.*.+.V.V +.",
"> y u j y.T :.Q s.Q } q m S p r a R T.W.W.Q.z.B.&.r r t +X>./.{  . .w.&.e :.r. .e H. .4 k < , 4.u 3 _ &.A.).e.X.b k.! #.!.V.#.X.",
"h 9 9 y j i ' w.` a q { w.` r m R t } E.W.,.B.B.m ] M t '.[ /.a p M ^.r /.` R :.w , w...h 9 _ j < 5.3 | | &.&.>.E b #.X.E.'.W :.",
"y 9 i j y j a i  .' w 4 r.v O.>.:.[ q M B.A.>.O.>.) M ` W.W R.q m e.[ :.W :.} e. .S w 7.9 , H.w 9 9 G S | 3 r E v E W O.W.'.[ :.",
"w ' ' M S i G 9 S w , e B.t z.z.T.T > w i  .E XXR.v &.T W.( R.v v >.t w.p T y.e.A.i q T p _ ' 4 > ..t...7.) -.,.O.E E t E./.r.R.",
"w.T  .' | S y G , q q r.r.Y T.,.>.a | i i w M r.>.'.O.:.W.;.T.} } R ) { r.^., > 7.A.w.:.r.&.p 4 .._ u q y.' [ Y W O.` ` B.R.} a ",
":.T ` T  .j < h u _ /.` ` T :.` M i S M | S M q XX>.O.,.T.,.r.T { r T R./.} A.e.R.&.m [ B.r.t j 4.w 4 w.&.p p { [ [ } ` r.w.r.: ",
"R t R { ' w 5 3 ' q T R.4 i w w 5 9 | i  .M S w E.-./.,.,.,.w.r e t /.T.-.W.` /.m a A.{ t [ e ' y S { t &.(.p > M T ` t ` &.y., ",
"` v W E E &.3 r [ >.R.w.3 5 5 ; ; : : S &.r &.r >.E.R.:.O.} ' u q y.:.T.,.W W.Y r.Y q T m T ' &.a q { :.w.' ^.A.r r { { T >.r.m ",
"&.O.R W >.] E O.z.>.] 4 3 G 0.6.7 9 3.9 > &.m ` v +X` /.Q } _ y  .w.@X2.Q Q.W :.T.:.T  .r  .T w.R } >.a { . ` '.A.] q M m r.y.w."
};
